<?xml version="1.0" encoding="UTF-8"?>
<svg xmlns="http://www.w3.org/2000/svg" viewBox="0 0 1286.73 645.51">
  <defs>
    <style>
      .cls-1 {
        fill: #000;
      }

      .cls-1, .cls-2 {
        stroke-width: 0px;
      }

      .cls-3, .cls-4 {
        stroke-width: 4px;
      }

      .cls-3, .cls-4, .cls-5, .cls-6, .cls-7 {
        stroke: #fff;
        stroke-miterlimit: 10;
      }

      .cls-3, .cls-6, .cls-7 {
        fill: none;
      }

      .cls-4, .cls-5, .cls-2 {
        fill: #fff;
      }

      .cls-5, .cls-7 {
        stroke-width: .75px;
      }

      .cls-6 {
        stroke-width: 6px;
      }
    </style>
  </defs>
  <g id="_レイヤー_2" data-name="レイヤー 2">
    <path class="cls-6" d="M2.95,190.36C116.95,524.36,236.95,203.36,271.95,1.36"/>
    <path class="cls-6" d="M272.2,1.56c92.75,319.79,206.75,141.79,235.75-.21"/>
    <path class="cls-6" d="M507.98,1.61c30.97,136.75,206.75,141.79,235.75-.21"/>
    <path class="cls-6" d="M1058.95,1.36c6.08,34.75,71.38,313.47,225,189"/>
    <path class="cls-6" d="M1058.49,4.98c5,152,69.46,569.38,225.46,185.38"/>
    <path class="cls-6" d="M743.48.55c34.46,184.73,267.27,193.91,315.08,2.39"/>
    <path class="cls-6" d="M2.95,190.36C117.03,788.02,237.36,320.99,272.32,1.68"/>
  </g>
  <g id="_レイヤー_3" data-name="レイヤー 3">
    <line class="cls-3" x1="91.95" y1="458.36" x2="91.95" y2="580.36"/>
    <line class="cls-3" x1="1171.95" y1="357.36" x2="1171.95" y2="469.36"/>
    <line class="cls-4" x1="945.95" y1="134.36" x2="945.95" y2="246.36"/>
    <line class="cls-3" x1="1015.95" y1="91.36" x2="1015.95" y2="165.36"/>
    <line class="cls-3" x1="200.95" y1="357.36" x2="200.95" y2="448.36"/>
    <line class="cls-3" x1="240.95" y1="209.36" x2="240.95" y2="321.36"/>
    <line class="cls-3" x1="323.95" y1="134.36" x2="323.95" y2="228.36"/>
    <line class="cls-3" x1="390.95" y1="177.36" x2="390.95" y2="289.36"/>
    <line class="cls-3" x1="481.95" y1="86.36" x2="481.95" y2="161.36"/>
    <line class="cls-3" x1="556.95" y1="78.36" x2="556.95" y2="190.36"/>
    <line class="cls-3" x1="625.95" y1="105.36" x2="625.95" y2="165.36"/>
    <line class="cls-3" x1="1246.95" y1="277.36" x2="1246.95" y2="389.36"/>
    <line class="cls-3" x1="113.95" y1="335.36" x2="113.95" y2="389.36"/>
    <g>
      <rect class="cls-5" x="81.35" y="620.04" width="20.75" height="20.62" transform="translate(-289.14 1140.94) rotate(-135)"/>
      <rect class="cls-5" x="65.73" y="613.57" width="20.75" height="20.62" transform="translate(-547.78 699.99) rotate(-90)"/>
      <rect class="cls-5" x="59.26" y="597.95" width="20.75" height="20.62" transform="translate(-409.71 227.39) rotate(-45)"/>
      <rect class="cls-5" x="65.73" y="582.33" width="20.75" height="20.62"/>
      <rect class="cls-5" x="81.35" y="575.86" width="20.75" height="20.62" transform="translate(441.35 106.83) rotate(45)"/>
      <rect class="cls-5" x="96.97" y="582.33" width="20.75" height="20.62" transform="translate(699.99 485.3) rotate(90)"/>
      <rect class="cls-5" x="103.44" y="597.95" width="20.75" height="20.62" transform="translate(624.41 957.89) rotate(135)"/>
      <rect class="cls-5" x="96.97" y="613.57" width="20.75" height="20.62" transform="translate(214.69 1247.77) rotate(180)"/>
    </g>
    <polygon class="cls-5" points="1171.92 523.8 1164.88 497.37 1138.45 490.33 1164.88 483.29 1171.92 456.86 1178.96 483.29 1205.39 490.33 1178.96 497.37 1171.92 523.8"/>
    <polygon class="cls-5" points="200.76 499.86 194.97 478.11 173.22 472.31 194.97 466.51 200.76 444.76 206.56 466.51 228.31 472.31 206.56 478.11 200.76 499.86"/>
    <polygon class="cls-5" points="323.69 255.78 317.89 234.03 296.14 228.24 317.89 222.44 323.69 200.69 329.48 222.44 351.23 228.24 329.48 234.03 323.69 255.78"/>
    <polygon class="cls-5" points="1015.69 204.78 1009.89 183.03 988.14 177.24 1009.89 171.44 1015.69 149.69 1021.48 171.44 1043.23 177.24 1021.48 183.03 1015.69 204.78"/>
    <g>
      <path class="cls-1" d="M390.45,363.61c0-43.5-7.25-50.75-50.75-50.75,43.5,0,50.75-7.25,50.75-50.75,0,43.5,7.25,50.75,50.75,50.75-43.5,0-50.75,7.25-50.75,50.75Z"/>
      <path class="cls-7" d="M390.45,363.61c0-43.5-7.25-50.75-50.75-50.75,43.5,0,50.75-7.25,50.75-50.75,0,43.5,7.25,50.75,50.75,50.75-43.5,0-50.75,7.25-50.75,50.75Z"/>
    </g>
    <g>
      <path class="cls-2" d="M390.45,363.61c0-43.5-7.25-50.75-50.75-50.75,43.5,0,50.75-7.25,50.75-50.75,0,43.5,7.25,50.75,50.75,50.75-43.5,0-50.75,7.25-50.75,50.75Z"/>
      <path class="cls-7" d="M390.45,363.61c0-43.5-7.25-50.75-50.75-50.75,43.5,0,50.75-7.25,50.75-50.75,0,43.5,7.25,50.75,50.75,50.75-43.5,0-50.75,7.25-50.75,50.75Z"/>
    </g>
    <g>
      <path class="cls-2" d="M945.72,322.99c0-43.5-7.25-50.75-50.75-50.75,43.5,0,50.75-7.25,50.75-50.75,0,43.5,7.25,50.75,50.75,50.75-43.5,0-50.75,7.25-50.75,50.75Z"/>
      <path class="cls-7" d="M945.72,322.99c0-43.5-7.25-50.75-50.75-50.75,43.5,0,50.75-7.25,50.75-50.75,0,43.5,7.25,50.75,50.75,50.75-43.5,0-50.75,7.25-50.75,50.75Z"/>
    </g>
    <g>
      <path class="cls-2" d="M1270.94,389.27c-17.82,10.29-23.52,7-23.52-13.58,0,20.58-5.7,23.87-23.52,13.58,17.82,10.29,17.82,16.87,0,27.16,17.82-10.29,23.52-7,23.52,13.58,0-20.58,5.7-23.87,23.52-13.58-17.82-10.29-17.82-16.87,0-27.16Z"/>
      <path class="cls-7" d="M1270.94,389.27c-17.82,10.29-23.52,7-23.52-13.58,0,20.58-5.7,23.87-23.52,13.58,17.82,10.29,17.82,16.87,0,27.16,17.82-10.29,23.52-7,23.52,13.58,0-20.58,5.7-23.87,23.52-13.58-17.82-10.29-17.82-16.87,0-27.16Z"/>
    </g>
    <g>
      <path class="cls-2" d="M137.24,392.66c-17.82,10.29-23.52,7-23.52-13.58,0,20.58-5.7,23.87-23.52,13.58,17.82,10.29,17.82,16.87,0,27.16,17.82-10.29,23.52-7,23.52,13.58,0-20.58,5.7-23.87,23.52-13.58-17.82-10.29-17.82-16.87,0-27.16Z"/>
      <path class="cls-7" d="M137.24,392.66c-17.82,10.29-23.52,7-23.52-13.58,0,20.58-5.7,23.87-23.52,13.58,17.82,10.29,17.82,16.87,0,27.16,17.82-10.29,23.52-7,23.52,13.58,0-20.58,5.7-23.87,23.52-13.58-17.82-10.29-17.82-16.87,0-27.16Z"/>
    </g>
    <g>
      <path class="cls-2" d="M580.63,186.66c-17.82,10.29-23.52,7-23.52-13.58,0,20.58-5.7,23.87-23.52,13.58,17.82,10.29,17.82,16.87,0,27.16,17.82-10.29,23.52-7,23.52,13.58,0-20.58,5.7-23.87,23.52-13.58-17.82-10.29-17.82-16.87,0-27.16Z"/>
      <path class="cls-7" d="M580.63,186.66c-17.82,10.29-23.52,7-23.52-13.58,0,20.58-5.7,23.87-23.52,13.58,17.82,10.29,17.82,16.87,0,27.16,17.82-10.29,23.52-7,23.52,13.58,0-20.58,5.7-23.87,23.52-13.58-17.82-10.29-17.82-16.87,0-27.16Z"/>
    </g>
    <g>
      <g>
        <polygon class="cls-2" points="790.76 133.12 802.74 115.99 814.72 133.12 802.74 150.24 790.76 133.12"/>
        <path class="cls-2" d="M802.74,116.86l11.37,16.26-11.37,16.26-11.37-16.26,11.37-16.26M802.74,115.12l-12.59,18,12.59,18,12.59-18-12.59-18h0Z"/>
      </g>
      <g>
        <polygon class="cls-2" points="790.76 169.23 802.74 152.1 814.72 169.23 802.74 186.35 790.76 169.23"/>
        <path class="cls-2" d="M802.74,152.97l11.37,16.26-11.37,16.26-11.37-16.26,11.37-16.26M802.74,151.23l-12.59,18,12.59,18,12.59-18-12.59-18h0Z"/>
      </g>
    </g>
    <g>
      <g>
        <polygon class="cls-2" points="790.76 203.12 802.74 185.99 814.72 203.12 802.74 220.24 790.76 203.12"/>
        <path class="cls-2" d="M802.74,186.86l11.37,16.26-11.37,16.26-11.37-16.26,11.37-16.26M802.74,185.12l-12.59,18,12.59,18,12.59-18-12.59-18h0Z"/>
      </g>
      <g>
        <polygon class="cls-2" points="790.76 239.23 802.74 222.1 814.72 239.23 802.74 256.35 790.76 239.23"/>
        <path class="cls-2" d="M802.74,222.97l11.37,16.26-11.37,16.26-11.37-16.26,11.37-16.26M802.74,221.23l-12.59,18,12.59,18,12.59-18-12.59-18h0Z"/>
      </g>
    </g>
    <g>
      <g>
        <polygon class="cls-2" points="1201.49 247.17 1213.47 230.04 1225.45 247.17 1213.47 264.3 1201.49 247.17"/>
        <path class="cls-2" d="M1213.47,230.92l11.37,16.26-11.37,16.26-11.37-16.26,11.37-16.26M1213.47,229.17l-12.59,18,12.59,18,12.59-18-12.59-18h0Z"/>
      </g>
      <g>
        <polygon class="cls-2" points="1201.49 283.28 1213.47 266.15 1225.45 283.28 1213.47 300.41 1201.49 283.28"/>
        <path class="cls-2" d="M1213.47,267.03l11.37,16.26-11.37,16.26-11.37-16.26,11.37-16.26M1213.47,265.28l-12.59,18,12.59,18,12.59-18-12.59-18h0Z"/>
      </g>
    </g>
    <g>
      <path class="cls-2" d="M626.27,199.88c0-29.7-4.95-34.65-34.65-34.65,29.7,0,34.65-4.95,34.65-34.65,0,29.7,4.95,34.65,34.65,34.65-29.7,0-34.65,4.95-34.65,34.65Z"/>
      <path class="cls-7" d="M626.27,199.88c0-29.7-4.95-34.65-34.65-34.65,29.7,0,34.65-4.95,34.65-34.65,0,29.7,4.95,34.65,34.65,34.65-29.7,0-34.65,4.95-34.65,34.65Z"/>
    </g>
    <g>
      <g>
        <polygon class="cls-2" points="228.49 331.17 240.47 314.04 252.45 331.17 240.47 348.3 228.49 331.17"/>
        <path class="cls-2" d="M240.47,314.92l11.37,16.26-11.37,16.26-11.37-16.26,11.37-16.26M240.47,313.17l-12.59,18,12.59,18,12.59-18-12.59-18h0Z"/>
      </g>
      <g>
        <polygon class="cls-2" points="228.49 367.28 240.47 350.15 252.45 367.28 240.47 384.41 228.49 367.28"/>
        <path class="cls-2" d="M240.47,351.03l11.37,16.26-11.37,16.26-11.37-16.26,11.37-16.26M240.47,349.28l-12.59,18,12.59,18,12.59-18-12.59-18h0Z"/>
      </g>
    </g>
    <g>
      <polygon class="cls-2" points="470.11 172.37 482.09 155.24 494.07 172.37 482.09 189.49 470.11 172.37"/>
      <path class="cls-2" d="M482.09,156.11l11.37,16.26-11.37,16.26-11.37-16.26,11.37-16.26M482.09,154.37l-12.59,18,12.59,18,12.59-18-12.59-18h0Z"/>
    </g>
  </g>
</svg>