<?xml version="1.0" encoding="UTF-8"?>
<svg xmlns="http://www.w3.org/2000/svg" viewBox="0 0 753.04 179.88">
  <defs>
    <style>
      .cls-1 {
        font-family: AlphabetSoupBT-Tilt, 'AlphabetSoup Tilt BT';
        font-size: 91.54px;
      }

      .cls-1, .cls-2, .cls-3 {
        fill: #fff;
      }

      .cls-2 {
        stroke-width: 0px;
      }

      .cls-4 {
        fill: #ed1e79;
        font-family: Brush455BT-Regular, 'Brush455 BT';
        font-size: 69px;
      }

      .cls-3 {
        font-family: AdLibBT-Regular, 'AdLib WGL4 BT';
        font-size: 60px;
        letter-spacing: .02em;
      }
    </style>
  </defs>
  <g id="_レイヤー_3" data-name="レイヤー 3">
    <text class="cls-4" transform="translate(74.01 117.85) scale(.87 1)"><tspan x="0" y="0">YOSHIDA AYAKA</tspan></text>
  </g>
  <g id="_レイヤー_1" data-name="レイヤー 1">
    <g>
      <text class="cls-1" transform="translate(2.88 78.49) scale(.87 1)"><tspan x="0" y="0">YOSHIDA AYAKA</tspan></text>
      <text class="cls-1" transform="translate(2.88 78.49) scale(.87 1)"><tspan x="0" y="0">YOSHIDA AYAKA</tspan></text>
    </g>
    <text class="cls-3" transform="translate(244.97 160.42)"><tspan x="0" y="0">Portfolio</tspan></text>
  </g>
  <g id="_レイヤー_2" data-name="レイヤー 2">
    <g>
      <path class="cls-2" d="M230.85,166c-.33.02-.14.06.77.04l.65-.09-1.42.05Z"/>
      <path class="cls-2" d="M237.02,166.11c1.08-.06,2.32-.19,1.62-.3-1.07.14-1.33.1-2.48.24-.92.02-1.6-.02-1.45-.06-.32.03-1.43,0-1.92.06,1.19.05,2.71.07,4.29-.02.34.02.01.06-.07.08Z"/>
      <path class="cls-2" d="M326.67,166.95l-.58-.07c.16.04.36.06.58.07Z"/>
      <path class="cls-2" d="M382.22,167.5c-.42.02-.6.09-.62.15.39-.05.72-.09.62-.15Z"/>
      <path class="cls-2" d="M391.7,168.3c-.2-.02-.37-.03-.56-.05.21.07.43.1.56.05Z"/>
      <path class="cls-2" d="M326.67,166.95l1.48.19c.1-.19-.76-.15-1.48-.19Z"/>
      <path class="cls-2" d="M249.38,165.59c-.31.02-.57.04-.81.07.26-.01.5-.02.76-.03.01-.01.03-.02.05-.03Z"/>
      <path class="cls-2" d="M302.18,167.22h-.45c-.13.05-.26.12-.37.19l.83-.19Z"/>
      <path class="cls-2" d="M283.39,167.1c.42.02.57-.33.74-.48-.24.14-.55.21-.93.23,0,.07.05.14.19.25Z"/>
      <path class="cls-2" d="M253.59,166.34l-.53.02c.14,0,.37-.02.53-.02Z"/>
      <path class="cls-2" d="M315.63,167.44c.03.07.1.13.17.17,0-.06-.07-.11-.17-.17Z"/>
      <path class="cls-2" d="M252.63,167.12s0-.02,0-.04c-.11.02-.14.03,0,.04Z"/>
      <path class="cls-2" d="M230.85,166.12h.3s.07-.03.07-.04l-.37.04Z"/>
      <path class="cls-2" d="M409.06,169.08s-.05,0-.08-.01c-.46.07-.2.06.08.01Z"/>
      <path class="cls-2" d="M525.49,165.17c1.81.19-2.94.29-.22.5-.25-.08,2.47-.39.22-.5Z"/>
      <path class="cls-2" d="M249.87,165.61c.25,0,.51,0,.77-.01-.35,0-.59,0-.77.01Z"/>
      <path class="cls-2" d="M525.27,165.67h0s.28.02.28.02c-.12,0-.18-.01-.28-.02Z"/>
      <path class="cls-2" d="M449.05,168.53c-.08-.1-.24-.17-.41-.24.01.06.11.13.41.24Z"/>
      <path class="cls-2" d="M419.26,167.84l.74.08c-.29-.05-.53-.07-.74-.08Z"/>
      <path class="cls-2" d="M464.52,167.67c.4.04.54.11,1.08.04-.05-.03-.1-.05-.17-.06-.2.07-.46.11-.92.03Z"/>
      <path class="cls-2" d="M480.62,167.59c-.09-.04-.2-.07-.3-.1-.16,0-.35.02-.51.03l.81.07Z"/>
      <path class="cls-2" d="M301.56,167.89c-.35-.12-.57-.25-.74-.38.25.3-2.12.37.74.38Z"/>
      <path class="cls-2" d="M249.39,165.69c.09-.05.23-.07.48-.08-.18,0-.36.01-.54.02-.05.03-.06.05.06.07Z"/>
      <path class="cls-2" d="M465.18,163.44l2.56.1c-.72-.06-1.64-.09-2.56-.1Z"/>
      <path class="cls-2" d="M417.07,167.6l-.59.05c.23,0,.43-.01.59-.05Z"/>
      <path class="cls-2" d="M475.33,163.52c.46.19.94.3,1.44.37.11-.04.23-.07.3-.13l-1.74-.24Z"/>
      <path class="cls-2" d="M300.81,167.5s0,0,0,0c0,0,0,0,0,0Z"/>
      <path class="cls-2" d="M283.96,168.17c2.44.06,1.14-.44,1.66-.71,2.91-.1,1.35.38,2.34.64,1.82-.09,3.21-.53,4.56-.5.1.09.36.12.06.22,1.92-.39,5.7.06,7.94-.46.17.05.25.1.29.14-.36-.28-.42-.55-.34-.75,1.09,0,2.03-.34,2.44.02-.67-.01-.73.13-1.04.24l1.14-.15c1.03.53-1.56.17-1.56.55,2.23-.14,4.83-.57,6.55-.41.36.53-4,.15-1.72.63l-2.65-.22c2.02.83-1.61-.07.25.81,3.48.2,3.9-.21,7.37-.02.78-.29-.26-.44.52-.73,4.94-.51,3.89,1.4,7.52.71.94-.36,1.3-1.07,3.89-.68l-.88.63c3.37.09,1.93-.91,5.46-.46-.63.25-2.65.2-2.14.28,2.29.53,1.62-.35,3.38-.35l.36.58c3.59-.07,7.55-.47,11.52-.57-.22.18-.9.36.03.55,5.02-.28,10.71.11,15.55.49l1.85-.52c.43,0,.8.24.33.34,1.89.2.1-.34,1-.54,1.07-.04,1.42.3.74.46,3.33-.45,9.48-.97,12.98-.42l-.68.16c2.73.2,3.08-1.08,5.61-.61l-.49.09c5.92.18,12.47-.3,16.99.36.86-.68,5.86.21,6.25-.7,3.38.4,2.41.58,7.18.77,1.27.01,1.9-.56,3.47-.66l.04.42,2.14-.47,1.14.47,1.48-.13c-.59-.01-1.25-.16-1.16-.28,2.3-.21,5.62.18,5.68.37l5.45-.41c-.12.14-1.03.21-1.76.32,2.91-.42.53.36,3.2-.03-.36-.07.19-.21.25-.28,1.33.18,4.36.12,6.6,0l-.43.22c4.04-.04,8.53-.27,13.07-.34-1.63-.06-1.25-.38.08-.42l.53.26c.86-.17-1.39-.09.37-.31,1.7.02,1.14.28.17.39l2.06-.12c.12.08-.36.12-.49.22.85-.17,3.56.19,4.78-.09l.12.07c4.54-.09,6.6-.13,10.29-.21.07-.19,1.52-.16,2.62-.31,2.72.04,5.73.17,9,.14,2.3-.09.67-.15,1.71-.25.17.15,3.44.14,1.74.25,3.93-.03,5.02-.03,9.99-.15-.54-.06-1.15-.09-.83-.15.9-.02,2.05.07,1.92.14l-.24.02c5.58-.24,12.87.52,17.31.21l-.25.02,4.61-.16c2.12.05-1.27.13.3.25,4.97-.27,7.85.13,11.94-.04,3.17.68,11.24.1,15.51.63l-.25-.18c1.1-.16,1.34.13,2.15.19-.12-.15-1.2-.19-.51-.27,1.62-.01,3.26,0,4.93.02v-2.5c-7.87-.11-16.04-.69-23.97-1.06-3.51-.15-1.99,1.3-6.42.62l1.26-.48c-7.08.49-14.48-.26-21.41.23.41-.13.42-.3,1.1-.29-1.46-.43-5.41-.08-5.44.27-1.08-.05-.25-.31-.92-.49-1.47-.27-3.69.51-4.47.08-.13-.07.41-.14.68-.17-.96.2-4.46-.09-3.54.41-2.6-.26-4.98.19-7.05-.12-1.35.56-4.45-.31-4.88.51.19-.84-4.56-.72-6.21-.32.55-.26-1.43-.28-.79-.64-1.88,0-3.6.14-3.27.6-3.46-1.08-6.95.81-8.9-.57-5.58.44-10.74.75-15.75.95.18-.93,5.55-.07,5.33-1.03-4.76.34-7.5,1.14-12.22.89-1.22-.13.69-.41,1.11-.56-4.75.37-9.19-.13-13.42.38.01-.09.47-.19.9-.26-.83.03-1.94-.15-1.84.29l.81-.12c1.33.64-3.31,1.32-3.46,1.66,1.42-1.26-4.18-.32-1.93-1.91-.55.08-1.24.29-1.11.58-.81-.09-1.07-.26-.25-.59-2.99.24-1.93.71-4.63.69,0-.21.56-.3.84-.55-1.37.41-2.75.83-5.03.65.14-.13-.13-.3.55-.29-3.93.06-6.69,1.11-11,.71,1.27-.93-1.47-.3-1.69-1.1l-2.32.24.93.39c-2.03,0-3.82.57-5.57.32l1.51-.33-3.8.16,2.15.3c-2.05.41.22,1-2.48.78.55-.08-2.03,0-3.09-.47h0c-1,.25-2.04.51-3.54.32-.39-.25.31-.86.06-1.03-.99.65-4.75.2-6.01.88.42-.16.44-.57.3-.65l-.83.52c-.94-.17-1.08-.24-.92-.57-2.83-.08.9.97-2.46.56.26-.04.14-.12.69-.2-3.37-.2-6.51.34-9.61.1-.91-.74,2.71-.19,1.66-.82-4.47.17-9.25.93-13.57.77l.81.08c-.6,1.01-3.22-.48-5.4,0,.54-.08.7-.55.56-.44-2.96-.14-6.05.28-10.53.59l.56-.25c-1.74-.21-4.59-.1-6.48-.19-.56.24-1.64.2-.98.54-2.9-.65-5.67-.44-8.36-.23-2.69.21-5.29.43-7.87-.05.62,0,1.47-.19.98-.19l-4.39.22c.35.34.58.2,1.5.47-.56.21-1.79.37-2.88.37,1.97-.23-.02-.55-.87-.73.14.1-.15.22-.08.32-2.29-.58-.38.67-3.52.28l.17-.17c-1.17.09-2.25.32-3.52.27-.52-.36,1.25-.17,1.33-.48-1.77.04-3.5.7-5.11.34.75-.1,1.84-.11,2.59-.21-1.75-.41-1.95-.3-3.25-.36h.13s-3.01-.15-3.01-.15l.77.1c-2.22.89-4.52.2-7.51.75,2.91-.52.48-.3.7-.65-.76-.09-1.93-.19-1.59-.29-1.41.29-2.36-.18-4.36.24-.09-.1-1.51,0-1.19-.26-1.84.11.43.17.28.31-2.83.36-6.66-.31-10.74.18-3.52.2-4.17.47-7.43.59-1.1-.11.9-.27.9-.27-1.78-.1-3.11-.06-4.79.03.34-.06-.01-.1-.52-.17-1.34.03-.9.23-2.67.16.3-.07.69-.17,1.34-.25-1.58.08-3.15.21-4.78.26-.43-.08.99-.14,1.57-.22-1.84.07-4.77.16-5.34.27l1.18.03c-.67,0-.35-.1.15-.13,1.58-.12,2.28.02,2.37.07l-1.17.04c1.2.29,4.69-.06,7.04-.08l-.98.26,2.41-.23c.51.07.86.23-.3.27,1.68.15,1.49-.1,2.94.07.16.03.09.04-.06.05l1.65-.08c-.32.06.27.22-.74.17,2.95.22,4.76-.22,5.87.05l-.25.02c4.1-.1.4-.25,3.47-.58l2.07.7.4-.29c.42.01,1.26.04,1.1.16,1.57-.2-.27-.13.65-.32,2.03.29,5.61-.13,6.07.39.73-.25-1.95-.2.23-.37.62.58,2.51-.1,4.37.18-.57.31-2.33.13-.47.42,1.12-.52,3.62.14,5.19.06.07-.45,3.41-.17,6.04-.31-.17.16,4.95.29,7.4.5l-.07.09c.47-.52,3-.41,4.84-.51-.07.33-.4.45-1.4.59h1.73c.41-.16.95-.25,2.07-.3l-.43.41c2.3,0,4.63-.46,7.59-.15.17-.41-2.35-1.13.78-1.41.12.22.23.6-.59.69.27-.03.96-.18,1.5-.09l-1.25.37c1.35.17.7-.31,1.78-.27-.02.32.8.23.64.49-.28.03-.94-.14-1.35-.01,1.22.06,2.68.26,3.17.51-.11-.19,0-.44.89-.48,2.3-.01.79.4,2.13.58.56-.23,2.02.03,2.06-.47.67,0,.8.24,1.06.38,1.19-.21,5.56-.03,4.22-.58l-.31-.04c.06,0,.12-.01.19-.02h0s0,0,0,0c3.9-.51,8.11.33,11.98.12v.18c2.3-.2,5.14-.1,6.79-.51.68,0,1.61.35,1.32.57,1.77-.14,1.96-.35,4.52-.03-1.78.33.61.3-1.82.24,2.3.18,2.82.49,5.28-.03-.84.5,1.73.64,2.82.5l-1.61-.37c1.23-.07,2.3-.02,3.39.03l-.59.66c4.7.86,8.47-1.36,12.05.04,1.24-.48-2.55-.35-1.44-.91,2.16.1,4.41,1.1,5.09,1.11,2.96.4,2.76-1.01,5.86-.73-.4-.25-.77-.92,1.54-1.15,2.16.09,2.66,1.06,1.29,1.26-.52.02-.77-.06-.75-.15-.7.09-1.62.19-.76.47l.28-.25c1.07.26,4.05.24,3.35.65,1.63-.24.7-.41-.51-.55,2.77.37,4.33.02,7.19.27-.45-.14-.87-.44-.42-.44,4.19.32,1.84-.48,4.68-.59,1.61.39-.58.93,2.28.6,1.74.26.37.68-.32.88,2.6-.49,4.86.32,6.35.41l-1.37.21c.82-.12,1.49-.12,2.17-.12l-.78-.51c.8.09,1.49.09,1.47.3.83-.33-.63-.85,1.01-1.31,1.07.26,3.27-.28,3.64.39-3.37-.23.37.68-2.48.79.55-.08,1.22-.08,2.03,0,.12.08-.11.14-.33.18,3.23.6,1.48-.77,4.83-.76-.42.38.78.72,1.32.64-1.35,0-.65-.63.59-.92,2.15.29,2.33-.22,3.46-.19l-1.28-.14c.43-.38,1.51-.33,3-.45.13.29-1.36.2-.82.33,1.66-.66,3.75.68,6.07.22,1.07.25.1.7,1.05.87,2.6-.49,2.81.49,5.54.08-.79-.49-.92-.37,1-.86l-4.48.37,2.88-.73c-1.35,0-2.86.32-3.67.24,1.37-.41,1.23-.29.58-.7,1.85.74,3.67-.44,5.81.06l-.07,1.22c3.22.52,5.72-.65,9.9-.37l-1.34-.2c.56-.48,2.58-.08,3.93-.27-.13.4.72.54,1.3.78-.07-.29,3.06,0,3.44-.78l1.87.5c3.37.19,3.85-1.12,7.09-.99-.98.42.5.68-1.68.99,1.08,0,2.06.06,2.07-.2.63.23,3-.52,4-.17.46-.17.61-.56,1.82-.53.13.08,0,.19,0,.19,0-.19,1.9-.26.84-.67,3.34,1.15,9.32-.1,12.23.86,2.36-.13,5.21-.25,7.36-.29-.14.11,0,.17-.41.14,2.96.31,1.82-1.01,5.19-.65,1.72.55-1.79.31-.72.51.47,1.13,4.06-.17,6.33.46l-.55.07c1.73.36,4.23-.45,7.06-.39,0,0-.14.1-.02.16,1.94-.56,5.6-.75,8.32-.9-.85.4-1.24.22-.72.61,1.22-.06-.36-.65,2.08-.76.79.21,2.55.39,2.78.8l-2.3.04c1.18.53,2.97-.05,4.19.03l-.15.23c3.52-.12,3.57-.68,7.36-.67l-.39-.16c2.07-.55,1.73.29,3.8-.12l.62.52c1.36-.14,4.78-.54,7.23-.64-1.39.36-4.25.58-6.02.84,1.35-.01,4.6-.1,5.3-.35-.55.05-1.23.18-1.77.11,1.66-.41,3.84-.6,6.54-.61-.31.59,2.79.47,5.52.51v-1.75c-1.45-.02-2.79-.07-3.46-.28-4.77.35-9.46.02-15.02.15,1.97.49-1.62.03-1.28.55-1.29.04-1.79.03-1.9,0l-3.92-.26c-.93-.13,1.23-.12,1.11-.23-2.83,0-1.19-.19-3.06-.29.38.16-.99.25-2.6.21l2.27.19c-3.96.28-3.42-.34-7.41-.07l1.26-.15c-2.05.1-7.56.08-9.56.41-.36-.04-.84-.15.06-.18-4.9,0-10.9.37-14.7.19l.37-.09c-.91.03-1.59.17-2.73.08.06-.04.37-.09-.05-.1-.48.03-2.43.16-3.64.11l1.03-.1c-4.78-.12-7.33.24-11.33.29.01-.27-3.75-.38-5.62-.45l.07-.04c-5.56-.09-9.44.15-14.59.24-3.2-.41-10.83-.29-15.96-.65.79.09-.13.33-1.04.36-1.21-.11-3.33.27-3.14-.15l.43.02c-.91-.43-3.39-.38-5.32-.43l-.32.59c-2.53-.47-5.84-.47-8.87-.42-3.03.05-5.77.14-7.15-.36-1.22.16-2.73.13-3.94.3l.07-.41c-3.38-.17-5.07-.26-9.25-.23l.85-.3c-2.36-.08-2.98,1.24-5.15,1.26l-.65-.69c-4.11-.03-8.28-.72-12.35-.09.07-.11.19-.32.85-.34-1.94-.04-7.49-.57-6.79.47-.05-.67-4.25-.09-6.47.21l.35-.5c-1.88.64-1.94.81-4.55.99-.62-.07-.54-.4.28-.27-2.07-.26-1.61.48-4.12.21l.93-.32c-2.13-.04-1.96.13-3.13.51-1.34.2-4.04-.12-4.35-.57-.29.28-1.45.64-2.71.52-.17-.17.29-.28.52-.33-3.56-.33-5.29.59-7.74.11-.05-.16-.21-.24-.41-.29,2.83,0,5.1.03,4.89.06,0-.46-2.28-.53-.47-1.17-1.83.35-4.97,1.1-7.19.9-.11-.04-.21-.09-.29-.15l.23-.05c-.51-.04-.97,0-1.41.08-.71-.07-1.16-.12-1.84-.13-.26-.37-2.62-.19-3.76-.2.09.48-1.4.41,0,.81-.18-.03.22-.06.97-.08.17-.02.37-.02.49-.05-.02.01-.05.03-.08.04.75-.01,1.72-.03,2.83-.04-.9.25-1.84.46-3.1.2-.58.31-1.23.64-1.59.79-1.56-.67-4.56-1.02-4.98-1.42-3.48.29-8.19.24-10.38,1.1-.99.11-1.14-.24-1.51-.37.57-.09,1.25-.08,1.56-.2-1.98.23-5.86.13-6.33.71-2.49-.25,1.4-.54-2.02-.43l.46-.18c-3.37-.43-6.1-.03-8.93.3-2.83.34-5.75.61-9.48.11.52.06.78.09.88.17-4.26-.2-8.64-.05-13.01.05-4.37.1-8.73.15-12.93-.07-2.39-.07-2.65.16-4.1.34l-.52-.27-2.49.34c-3.53.21-6.12-.51-10.59-.09l.58.13c-1.61,0-5.09.12-4.82-.02-.16.02-.53.12-1.15.07l-.05-.08-3.95.18c-3.06,0,.48-.28-3.98-.18-1.66.08-4.72.23-4.1.23.67,0,1.71,0,1.76.04l-1.52.03c-.28.11-1.44.14,2.28.35h2.6s.84.09.84.09l-2.18-.06c1.24.11,2.03.08,2.9.05.21.05.57.1,1.09.13l2.55-.13c.31.1-1.14.14.57.24,1.19-.07-1.14-.23.83-.26,1.24.13.88.23,2.34.16.2.07-.1.11-.68.12,1.3-.05,3.43.06,4.1-.09,1.29.21,4.38.04,4.25.36.41-.07,2.29-.21,3.48-.21-2.18.39,4.46.11,3.89.6,1.61-.39,5.82-.05,8.67-.26-.16.04-.47.11-.72.08,1.61.07,2.07.23,3.11.35.21-.42,2.71-.48,4.06-.74,1.97.46-1.2.51-.58.93-.1-.36,3.42-.3,2.75-.62,1.51.3,1.3.15,2.07.56.26-.59,1.4-.07,2.65-.43,2.18.33.56.59,2.95.44,1.14.22-.99.4-.99.4ZM340.9,167.45h0c-.49.02-.91.03-1.18.03.24,0,.58-.02,1.18-.03ZM345.68,167.45c-.58-.02-1.31-.03-2.08-.02-.17-.17.01-.35.5-.34-.26.11.87.22,1.58.36ZM335.56,164.05c.76-.07,1.01.02,1.11.12-.36.01-.78.03-1.32.06-.02.02-.07.04-.09.06.07-.09.15-.18.3-.25Z"/>
      <path class="cls-2" d="M334.2,164.69c-.11.01-.17.03-.31.04.15.04.3.08.45.11.09-.05.19-.11.27-.15-.14,0-.28,0-.41,0Z"/>
      <path class="cls-2" d="M325.99,166.87h.1c-.08,0-.16-.03-.21-.06.07.02.07.04.11.06Z"/>
      <polygon class="cls-2" points="411.75 167.89 411.74 167.79 411.32 167.89 411.75 167.89"/>
      <path class="cls-2" d="M299.64,165.34c-.05-.04-.15-.07-.35-.1.02.03.16.06.35.1Z"/>
      <path class="cls-2" d="M288.26,165.34l-1.61-.11c.7.07,1.2.1,1.61.11Z"/>
      <path class="cls-2" d="M279.51,165.25c-.11.06-.14.1-.17.14h.02s.15-.14.15-.14Z"/>
      <path class="cls-2" d="M418.66,163.83c.12,0,.23-.01.34-.03.79-.11.25-.07-.34.03Z"/>
      <path class="cls-2" d="M377.25,165.24c.44-.11.87-.21,1.33-.28-.74-.04-1.31-.05-1.33.28Z"/>
      <path class="cls-2" d="M464.9,163.43s0,0,0,0c.1,0,.19,0,.29,0h-.28Z"/>
      <path class="cls-2" d="M380.5,164.97c-.74-.12-1.35-.09-1.93,0,.6.04,1.32.1,1.93,0Z"/>
      <path class="cls-2" d="M241.58,165.73h-.42s-.02.02-.05.02l.47-.02Z"/>
      <path class="cls-2" d="M241.1,165.75l-.47.02c.22,0,.4,0,.47-.02Z"/>
      <path class="cls-2" d="M239.65,165.82l.99-.05c-.34,0-.76.01-.99.05Z"/>
      <path class="cls-2" d="M253.16,165.6l.13-.07c-.07.02-.12.04-.13.07Z"/>
      <path class="cls-2" d="M256.68,165.53c-.84,0-2.11-.13-3.28-.06l-.11.06c.55-.12,2.59.14,3.39,0Z"/>
      <path class="cls-2" d="M271.38,166.64l-2.95-.11c.52.11,1.19.27-.15.28,3.72.37-.77-.25,3.1-.17Z"/>
      <path class="cls-2" d="M280.52,166.9c-1.59.04.02.19-.07.26,1.01-.1,1.25-.14.07-.26Z"/>
      <path class="cls-2" d="M346.63,167.37l-.16.49c1.22-.06.01-.19.16-.49Z"/>
      <polygon class="cls-2" points="359.27 164.77 358.08 164.45 357.51 164.92 359.27 164.77"/>
      <polygon class="cls-2" points="366.73 168.48 366.2 168.55 368.24 168.37 366.73 168.48"/>
      <path class="cls-2" d="M477.76,168.06l-.37-.58c-.83.11-1,.76.37.58Z"/>
      <path class="cls-2" d="M525.69,167.15c.52.22,1.87.33,2.7.11-1.08-.02-2.15-.18-2.7-.11Z"/>
      <polygon class="cls-2" points="424.46 164.68 425.42 164.58 423.61 164.65 424.46 164.68"/>
    </g>
  </g>
</svg>